<?xml version="1.0" encoding="UTF-8"?>
<!DOCTYPE svg PUBLIC "-//W3C//DTD SVG 1.1//EN" "http://www.w3.org/Graphics/SVG/1.1/DTD/svg11.dtd">
<!-- Creator: CorelDRAW -->
<svg xmlns="http://www.w3.org/2000/svg" xml:space="preserve" width="6.82666in" height="6.82666in" style="shape-rendering:geometricPrecision; text-rendering:geometricPrecision; image-rendering:optimizeQuality; fill-rule:evenodd; clip-rule:evenodd"
viewBox="0 0 6.82666 6.82666"
 xmlns:xlink="http://www.w3.org/1999/xlink">
 <defs>
  <style type="text/css">
   <![CDATA[
    .fil0 {fill:#795548}
    .fil2 {fill:#FFFFFE}
    .fil1 {fill:#FFFFFE;fill-rule:nonzero}
   ]]>
  </style>
 </defs>
 <g id="Layer_x0020_1">
  <metadata id="CorelCorpID_0Corel-Layer"/>
  <rect class="fil0" width="6.82666" height="6.82666" rx="0.853335" ry="0.853335"/>
  <g id="_304715064">
   <path id="_304712568" class="fil1" d="M4.472 1.88166c0.280335,0 0.534146,0.113638 0.71787,0.297366 0.183728,0.183724 0.297366,0.437535 0.297366,0.71787 0,0.280335 -0.113638,0.53415 -0.297366,0.717874 -0.183724,0.183724 -0.437535,0.297366 -0.71787,0.297366 -0.280335,0 -0.53415,-0.113638 -0.717874,-0.297366 -0.183724,-0.183724 -0.297366,-0.437539 -0.297366,-0.717874 0,-0.280335 0.113642,-0.534146 0.297366,-0.71787 0.183724,-0.183728 0.437539,-0.297366 0.717874,-0.297366z"/>
   <polygon id="_304712496" class="fil1" points="4.57867,1.42048 4.57867,1.8095 4.36533,1.8095 4.36533,1.42048 "/>
   <polygon id="_304712328" class="fil1" points="4.57867,3.98431 4.57867,4.37333 4.36533,4.37333 4.36533,3.98431 "/>
   <polygon id="_304712472" class="fil1" points="5.59141,1.92833 5.31632,2.20341 5.16549,2.05257 5.44057,1.77749 "/>
   <polygon id="_304711992" class="fil1" points="3.7785,3.74123 3.50342,4.01631 3.35259,3.86548 3.62767,3.59039 "/>
   <polygon id="_304715928" class="fil1" points="5.94842,3.00357 5.5594,3.00357 5.5594,2.79023 5.94842,2.79023 "/>
   <polygon id="_304715808" class="fil1" points="3.38459,3.00357 2.99557,3.00357 2.99557,2.79023 3.38459,2.79023 "/>
   <polygon id="_304715328" class="fil1" points="5.44057,4.01631 5.16549,3.74123 5.31632,3.59039 5.59141,3.86548 "/>
   <polygon id="_304715136" class="fil1" points="3.62767,2.20341 3.35259,1.92833 3.50342,1.77749 3.7785,2.05257 "/>
  </g>
  <path class="fil2" d="M2.12083 1.06667l0.0250039 0c0.110307,0 0.211701,0.0554764 0.286169,0.144843 0.0789724,0.0947638 0.127992,0.22689 0.127992,0.373484l0 2.31022 0 0.0612283 0.0533346 0.0308543c0.146362,0.0846693 0.268193,0.206469 0.352386,0.352323 0.0811693,0.140614 0.127614,0.304346 0.127614,0.479524 0,0.265106 -0.107453,0.505114 -0.281169,0.678831 -0.173717,0.173717 -0.41372,0.281165 -0.678827,0.281165 -0.265106,0 -0.50511,-0.107449 -0.678831,-0.281165 -0.173717,-0.17372 -0.281165,-0.413724 -0.281165,-0.678831 0,-0.175181 0.0464488,-0.338913 0.127614,-0.47952 0.0841929,-0.145854 0.20602,-0.267657 0.352382,-0.352327l0.0533346 -0.0308543 0 -0.0612283 0 -2.31022c0,-0.146594 0.0490197,-0.27872 0.127988,-0.373484 0.0744724,-0.0893701 0.175858,-0.144843 0.286173,-0.144843zm0.0925079 3.31494c0.17574,0.0368701 0.307709,0.192728 0.307709,0.379429 0,0.21413 -0.173583,0.387713 -0.387713,0.387713 -0.21413,0 -0.387713,-0.173583 -0.387713,-0.387713 0,-0.186705 0.131972,-0.342563 0.307717,-0.379429l0 -2.78161c0,-0.0441811 0.0358189,-0.08 0.08,-0.08 0.0441811,0 0.08,0.0358189 0.08,0.08l0 2.78161z"/>
 </g>
</svg>
